<svg width="908" height="120" viewBox="0 0 908 120" fill="none" xmlns="http://www.w3.org/2000/svg">
<g clip-path="url(#clip0_5_26)">
<path d="M469 38.8027C468.403 38.8989 467.807 38.9952 467.21 39.0914C466.315 39.3308 465.495 39.9057 464.75 40.8159C463.855 41.9177 463.283 43.2828 463.035 44.9114C462.835 46.4923 462.735 47.9535 462.735 49.2947V97.1501C462.735 97.9165 462.81 98.8264 462.96 99.8803C463.109 100.886 463.408 101.773 463.854 102.539C464.352 103.305 465.023 103.928 465.868 104.407C466.763 104.839 467.732 105.102 468.776 105.198V108H446.257V105.198C446.903 105.198 447.549 105.101 448.196 104.909C450.631 104.143 451.849 102.179 451.849 99.017C451.849 96.9093 451.327 94.9214 450.283 93.0532C449.587 91.7599 448.245 89.9873 446.257 87.7358L411.956 48.9342L411.882 97.0769C411.882 98.2745 411.956 99.3045 412.106 100.167C412.306 100.981 412.604 101.772 413.001 102.538C413.448 103.305 414.045 103.903 414.791 104.334C415.536 104.718 416.506 105.005 417.699 105.197V107.999H396V105.197C396.945 105.1 397.591 105.028 397.939 104.98C398.287 104.884 398.759 104.669 399.356 104.334C400.4 103.711 401.145 102.441 401.592 100.525C402.04 98.5614 402.264 96.3578 402.264 93.9147V49.8677C402.264 49.2929 402.264 48.6939 402.264 48.0712C402.264 46.5382 402.164 45.0772 401.964 43.6881C401.765 42.299 401.417 41.3411 400.92 40.8141C399.876 39.7123 398.435 39.0417 396.595 38.8022V36H439.247V38.8022C438.75 38.8022 438.302 38.946 437.905 39.2336C437.557 39.473 437.209 39.8322 436.861 40.3113C436.513 40.7424 436.339 41.1974 436.339 41.6765C436.339 42.3471 436.563 43.0897 437.01 43.9041C437.21 44.2874 437.558 44.7906 438.054 45.4134L453.042 63.5208L452.967 47.2815C452.967 46.8982 452.967 46.6108 452.967 46.4193C452.967 45.126 452.892 44.1439 452.742 43.4733C452.593 42.8027 452.22 42.0843 451.624 41.3179C451.027 40.5036 450.307 39.9287 449.462 39.5933C448.666 39.21 447.672 38.9464 446.479 38.8027V36.0005H468.998L469 38.8027Z" fill="#EC1C23"/>
<path d="M396 38.8051C394.472 39.0929 393.438 39.4047 392.895 39.7402C392.353 40.028 391.836 40.5076 391.343 41.1789C390.653 42.0901 390.21 43.1211 390.013 44.2719C389.864 45.3748 389.79 46.8133 389.79 48.5875V96.9951C389.79 98.3856 389.913 99.6804 390.16 100.879C390.455 102.03 390.874 102.869 391.416 103.397C391.958 103.924 392.599 104.38 393.338 104.763C394.077 105.099 394.915 105.267 395.851 105.267V108H360.002V105.267C361.973 105.267 363.623 104.476 364.954 102.893C365.595 102.174 366.013 101.383 366.21 100.519C366.457 99.6563 366.58 98.6253 366.58 97.4264V48.8031C366.58 46.7411 366.481 45.1108 366.283 43.912C366.085 42.7132 365.617 41.6342 364.879 40.6751C364.484 40.1476 363.918 39.7641 363.178 39.5245C362.439 39.2368 361.38 38.9971 360 38.8051V36H395.997L396 38.8051Z" fill="#EC1C23"/>
<path d="M360 108H322.773V105.198C324.019 104.958 324.953 104.671 325.576 104.336C327.492 103.186 328.45 101.318 328.45 98.7307C328.45 97.8683 328.402 97.1977 328.306 96.7188C327.971 94.4673 326.557 91.9523 324.066 89.1739C321.383 86.1559 318.389 83.9046 315.083 82.4196C313.789 81.8447 311.873 81.3417 309.333 80.9105C306.842 80.4315 304.782 80.1919 303.153 80.1919L298.05 94.7785C297.428 96.503 297.116 98.3954 297.116 100.455C297.116 101.461 297.236 102.156 297.476 102.539C298.051 103.401 298.697 104.048 299.416 104.479C300.135 104.862 300.949 105.126 301.86 105.269V107.928H278V105.197C278.958 104.91 279.677 104.623 280.156 104.335C280.635 104 281.354 103.425 282.312 102.611C283.558 101.605 284.492 100.671 285.115 99.8084C285.738 98.8982 286.336 97.6527 286.911 96.072L306.818 44.9822C307.058 44.4073 307.273 43.8327 307.465 43.2579C307.658 42.683 307.754 42.1559 307.754 41.6768C307.754 41.0062 307.586 40.4554 307.25 40.0242C306.963 39.5452 306.652 39.2337 306.316 39.0901C306.029 38.9458 305.717 38.8259 305.382 38.7305V36H337.219V39.1616C336.069 39.1616 335.278 39.5688 334.847 40.3831C334.655 40.7664 334.558 41.1497 334.558 41.5328C334.558 41.9161 334.631 42.3472 334.775 42.8263C334.823 42.9225 334.991 43.4016 335.278 44.2636L353.963 100.383C354.299 100.958 354.562 101.413 354.754 101.748C355.377 102.754 355.976 103.473 356.55 103.904C357.125 104.287 357.652 104.575 358.132 104.766C358.611 104.91 359.233 105.054 360 105.197L360 108ZM321.695 76.2397L313.646 50.8028L306.747 70.9944C307.322 70.9944 308.041 71.0183 308.903 71.0664C309.765 71.1145 311.035 71.3779 312.712 71.8568C314.389 72.3359 316.209 73.0784 318.174 74.0845C319.611 74.8509 320.785 75.569 321.695 76.2397Z" fill="#EC1C23"/>
<path d="M277.998 38.806C276.934 38.9504 276.087 39.1663 275.458 39.4535C274.877 39.7411 274.345 40.2207 273.861 40.8922C273.039 42.0909 272.507 43.2418 272.265 44.3447C272.023 45.4476 271.902 46.91 271.902 48.7322V97.7144C271.853 98.7214 271.829 99.4408 271.829 99.8724C271.829 100.592 271.878 101.191 271.975 101.671C272.121 102.15 272.387 102.654 272.773 103.181C273.838 104.572 275.362 105.267 277.345 105.267V108H242.583V105.267C243.551 105.267 244.421 105.075 245.195 104.691C246.018 104.26 246.744 103.684 247.373 102.965C248.002 102.246 248.413 101.479 248.607 100.663C248.848 99.8483 248.969 98.9372 248.969 97.9301C248.969 97.4506 248.969 97.0669 248.969 96.7793V51.5372L227.633 93.9742L207.24 50.4584V97.2829C207.24 98.3858 207.288 99.3208 207.385 100.088C207.483 100.855 207.773 101.67 208.256 102.534C209.224 104.356 210.966 105.267 213.482 105.267V108H192V105.267C192.822 105.267 193.572 105.17 194.25 104.978C194.976 104.785 195.629 104.306 196.209 103.539C196.838 102.724 197.298 101.501 197.588 99.871C197.927 98.2406 198.096 96.2747 198.096 93.9731V49.8819C198.096 48.0597 198.048 46.621 197.951 45.566C197.709 42.8808 197.225 41.1547 196.499 40.3874C195.967 39.7161 195.29 39.3085 194.467 39.1647C193.693 39.0203 192.968 38.9006 192.29 38.8053V36.0002H229.52V38.8053C228.552 39.189 227.851 39.7164 227.416 40.3877C227.125 40.9631 226.98 41.5624 226.98 42.1858C226.98 42.6174 227.029 43.0489 227.126 43.4803C227.223 43.864 227.392 44.3675 227.634 44.9908L235.109 62.0377L243.963 44.5593C244.302 43.9839 244.544 43.4326 244.689 42.9051C244.835 42.3776 244.907 41.8981 244.907 41.4664C244.907 41.0348 244.859 40.7231 244.762 40.5313C244.616 40.0997 244.422 39.7641 244.181 39.5244C244.035 39.38 243.721 39.1402 243.238 38.8051V36H278L277.998 38.806Z" fill="#EC1C23"/>
<path d="M192 72.6161C192 83.2017 188.842 91.6654 182.525 98.0076C175.897 104.669 166.777 108 155.167 108C144.09 108 135.126 104.601 128.276 97.8023C121.425 90.9582 118 82.3804 118 72.0686C118 61.7112 121.581 53.0647 128.743 46.1294C135.727 39.3765 144.246 36 154.299 36C165.02 36 173.739 38.8062 180.456 44.4184C188.152 50.8519 192 60.2511 192 72.6161ZM169.913 71.4527C169.913 65.0192 168.601 59.179 165.977 53.9319C162.952 47.909 159.104 44.8976 154.433 44.8976C150.563 44.8976 147.204 47.6579 144.357 53.1788C141.555 58.6541 140.153 64.6541 140.153 71.1788C140.153 77.8404 141.51 83.9775 144.224 89.5896C147.293 95.9318 151.074 99.1029 155.567 99.1029C160.727 99.1029 164.531 96.0687 166.977 90.0002C168.935 85.1637 169.913 78.9812 169.913 71.4527Z" fill="#EC1C23"/>
<path d="M118 60.1438C118 74.5295 114.37 85.8141 107.111 93.9979C98.8236 103.333 86.2964 108 69.5292 108H12.0002V104.356C14.056 104.356 15.8549 103.525 17.3966 101.862C17.9106 101.287 18.4245 100.296 18.9383 98.8891C19.5166 97.4186 19.8056 96.0757 19.8056 94.861V25.2348C19.8056 23.5725 19.7734 22.5174 19.7089 22.0697C19.451 20.5352 18.9049 19.2567 18.0708 18.2338C17.2357 17.2109 16.3685 16.5392 15.4692 16.2194C14.634 15.8998 13.4776 15.7401 12 15.7401V12H64.7109C79.0369 12 91.4035 16.5394 101.811 25.6183C112.603 35.0169 118 46.5255 118 60.1438ZM87.0673 60.1438C87.0673 49.7222 84.0478 40.5155 78.009 32.5235C72.2273 24.8512 65.8994 21.0151 59.0255 21.0151C57.291 21.0151 55.5886 21.3667 53.9183 22.07C52.3122 22.7733 51.2522 24.02 50.7382 25.8102C50.2241 27.5364 49.9671 29.6462 49.9671 32.1397V85.6543C49.9671 89.4905 50.3847 92.1439 51.2199 93.6145C52.055 95.0211 53.4683 96.14 55.4598 96.9712C57.4512 97.7384 59.6032 98.1219 61.9161 98.1219C68.79 98.1219 74.7003 94.5734 79.647 87.4765C84.5937 80.3157 87.0673 71.2048 87.0673 60.1438Z" fill="#EC1C23"/>
</g>
<g clip-path="url(#clip1_5_26)">
<path d="M896 84.1585C896 89.683 893.967 94.415 889.903 98.3546C886.561 101.57 882.135 104.06 876.626 105.826C872.11 107.275 867.797 108 863.687 108C860.39 108 856.687 107.728 852.578 107.185C848.468 106.641 844.268 106.098 839.978 105.555C839.39 105.555 838.894 105.6 838.487 105.691C838.126 105.737 837.674 105.918 837.132 106.235C836.636 106.597 836.139 106.959 835.642 107.321L833 79.2007L835.439 78.928C835.575 80.2866 836.139 82.1431 837.132 84.4977C838.397 87.5317 839.865 89.9317 841.536 91.6977C843.929 94.2335 846.752 96.1807 850.003 97.5392C853.3 98.8978 856.506 99.5769 859.622 99.5769C863.055 99.5769 865.99 98.8298 868.429 97.3355C870.867 95.8411 872.358 93.7355 872.9 91.0186C872.99 90.611 873.036 90.0448 873.036 89.3203C873.036 87.6449 872.539 86.1959 871.545 84.9733C870.597 83.7054 869.31 82.7997 867.684 82.2563L849.8 76.3469C845.51 74.943 842.168 72.86 839.775 70.0979C837.155 67.0639 835.846 63.3962 835.846 59.0943C835.846 53.1623 838.149 48.1359 842.755 44.0151C846.865 40.3473 852.262 37.8341 858.945 36.4756C860.571 36.1585 862.287 36 864.094 36C866.442 36 869.061 36.2942 871.952 36.8828C874.842 37.4715 877.823 38.0603 880.894 38.649C881.255 38.649 881.503 38.6261 881.639 38.5807C882.632 38.3089 883.671 37.9014 884.755 37.3582C885.568 36.8601 886.2 36.4979 886.651 36.2716L888.955 58.347L886.516 59.0941C886.38 58.4149 885.928 57.3734 885.161 55.9696C883.355 52.5734 881.39 50.1506 879.268 48.7016C877.552 47.5243 875.587 46.5735 873.374 45.8489C871.161 45.1244 869.039 44.7621 867.007 44.7621C865.245 44.7621 863.71 45.0565 862.4 45.6451C861.091 46.1885 860.12 47.0489 859.487 48.2263C859.081 48.9507 858.787 49.5847 858.607 50.1281C858.291 51.0338 858.132 51.9846 858.132 52.9808C858.132 54.4752 858.674 55.811 859.758 56.9883C861.113 58.4375 863.213 59.6148 866.058 60.5204L882.316 65.7506C886.606 67.1543 889.948 69.4185 892.342 72.5431C894.781 75.6676 896 79.5397 896 84.1585Z" fill="#EC1C23"/>
<path d="M833 68.1939C831.088 68.1939 829.433 68.9854 828.034 70.5684C827.288 71.3598 826.798 72.2209 826.565 73.1522C826.378 74.0834 826.284 75.2706 826.284 76.7138V97.5248C826.284 98.4092 826.284 99.2938 826.284 100.179C826.377 100.97 826.657 101.785 827.123 102.623C827.59 103.461 828.103 104.066 828.662 104.438C829.268 104.764 830.131 105.067 831.25 105.346V108H796.277C787.883 108 781.191 107.162 776.202 105.486C770 103.391 764.754 99.6198 760.464 94.1726C757.712 90.6808 755.614 86.8167 754.168 82.58C752.723 78.2967 752 73.9205 752 69.451C752 64.6556 752.886 60.1627 754.658 55.9726C756.43 51.7359 759.134 48.0348 762.772 44.8689C766.269 41.8893 770.326 39.7242 774.942 38.3741C779.559 36.9774 784.619 36.2792 790.121 36.2792C793.106 36.2792 795.904 36.4422 798.515 36.768C801.126 37.0474 804.111 37.5362 807.468 38.2346C809.193 38.6071 810.779 38.7932 812.224 38.7932C813.857 38.7932 815.186 38.514 816.211 37.9553C817.004 37.3035 817.82 36.6518 818.66 36L821.527 59.9534L819.779 60.8613C818.986 58.6266 817.284 55.9729 814.673 52.9001C812.667 50.5257 810.662 48.873 808.657 47.9418C803.668 45.6605 799.214 44.5199 795.297 44.5199C789.189 44.5199 784.362 47.127 780.818 52.3414C777.88 56.6712 776.085 62.2581 775.432 69.102C775.385 69.5211 775.339 69.9166 775.292 70.2889C775.292 70.6615 775.292 71.1271 775.292 71.6858C775.292 78.7159 777.087 85.1176 780.678 90.8906C784.874 97.6879 790.377 101.086 797.185 101.086C800.216 101.086 802.455 100.132 803.9 98.2234C805.113 96.5939 805.719 94.4057 805.719 91.6588V74.9682C805.719 73.3852 805.602 72.2912 805.369 71.686C805.182 71.0808 804.809 70.4986 804.25 69.9399C803.177 68.9156 801.965 68.4036 800.613 68.4036C800.1 68.4036 799.727 68.4271 799.494 68.4738V65.82H832.998L833 68.1939Z" fill="#EC1C23"/>
<path d="M752 38.8029C751.428 38.8991 750.856 38.9954 750.284 39.0916C749.426 39.331 748.639 39.9057 747.924 40.8159C747.066 41.9177 746.518 43.2832 746.28 44.9119C746.088 46.4927 745.993 47.9537 745.993 49.2949V97.1501C745.993 97.9165 746.064 98.8264 746.208 99.8804C746.351 100.886 746.637 101.773 747.066 102.539C747.543 103.305 748.186 103.928 748.996 104.407C749.854 104.839 750.784 105.102 751.785 105.198V108H730.192V105.198C730.811 105.198 731.431 105.101 732.05 104.909C734.386 104.143 735.554 102.179 735.554 99.0171C735.554 96.9093 735.053 94.9215 734.052 93.0533C733.385 91.7599 732.098 89.9873 730.191 87.7359L697.301 48.9344L697.229 97.077C697.229 98.2745 697.301 99.3045 697.444 100.167C697.636 100.981 697.922 101.772 698.302 102.538C698.731 103.305 699.303 103.903 700.018 104.334C700.733 104.718 701.663 105.005 702.807 105.197V107.999H682V105.197C682.906 105.1 683.526 105.028 683.859 104.98C684.193 104.884 684.646 104.669 685.218 104.334C686.219 103.711 686.934 102.441 687.363 100.525C687.792 98.5612 688.007 96.3576 688.007 93.9145V49.8677C688.007 49.2928 688.007 48.6941 688.007 48.0713C688.007 46.5384 687.911 45.0774 687.72 43.6883C687.528 42.2992 687.194 41.341 686.719 40.8141C685.717 39.7123 684.335 39.0419 682.571 38.8025V36H723.47V38.8025C722.993 38.8025 722.564 38.946 722.183 39.2335C721.849 39.473 721.516 39.8324 721.182 40.3115C720.848 40.7427 720.682 41.1976 720.682 41.6767C720.682 42.3473 720.896 43.0899 721.325 43.9043C721.517 44.2876 721.85 44.7906 722.326 45.4133L736.698 63.5207L736.626 47.2817C736.626 46.8984 736.626 46.611 736.626 46.4195C736.626 45.1262 736.554 44.1441 736.411 43.4735C736.267 42.8029 735.91 42.0842 735.338 41.3179C734.766 40.5036 734.075 39.9287 733.265 39.5933C732.502 39.21 731.549 38.9466 730.405 38.8029V36.0007H751.998L752 38.8029Z" fill="#EC1C23"/>
<path d="M682 38.8049C680.515 39.0927 679.509 39.4044 678.982 39.74C678.455 40.0278 677.952 40.5074 677.472 41.1787C676.802 42.0899 676.371 43.1209 676.179 44.2716C676.035 45.3745 675.962 46.8131 675.962 48.5873V96.9947C675.962 98.3852 676.082 99.6799 676.322 100.879C676.609 102.03 677.017 102.869 677.544 103.396C678.071 103.924 678.693 104.379 679.412 104.763C680.13 105.099 680.945 105.267 681.855 105.267V108H647.002V105.267C648.918 105.267 650.523 104.475 651.817 102.893C652.439 102.174 652.846 101.383 653.038 100.519C653.277 99.6561 653.397 98.6251 653.397 97.4264V48.803C653.397 46.7411 653.301 45.1107 653.109 43.9119C652.916 42.7131 652.461 41.6344 651.743 40.6753C651.36 40.1478 650.809 39.7641 650.09 39.5244C649.372 39.2368 648.341 38.997 647 38.8051V36H681.997L682 38.8049Z" fill="#EC1C23"/>
<path d="M647 38.8055C646.33 38.95 645.683 39.07 645.061 39.1652C644.007 39.453 643.146 40.0763 642.475 41.0352C641.805 41.9943 641.35 43.0492 641.11 44.2C640.918 45.3508 640.822 46.7174 640.822 48.2998L640.966 97.2107C640.966 98.6012 641.086 99.8959 641.325 101.095C641.613 102.246 642.02 103.109 642.546 103.684C643.599 104.739 645.036 105.267 646.856 105.267V108H612.022V105.267C614.033 105.267 615.637 104.547 616.834 103.109C617.409 102.389 617.792 101.598 617.984 100.735C618.223 99.8237 618.342 98.7927 618.342 97.642V62.6857H597.011V97.4985C597.011 98.8411 597.083 99.896 597.228 100.663C597.42 101.43 597.851 102.222 598.52 103.037C599.813 104.523 601.441 105.267 603.404 105.267V108H569.073V105.267C570.031 105.074 570.677 104.906 571.012 104.763C571.395 104.571 572.042 104.091 572.951 103.324C573.43 102.893 573.909 101.814 574.388 100.088C574.867 98.3134 575.106 96.6351 575.106 95.0527L574.962 48.012C574.962 47.5325 574.962 47.1968 574.962 47.0051C574.962 45.4226 574.89 44.2478 574.745 43.4806C574.601 42.7135 574.242 41.9463 573.668 41.1789C573.094 40.3638 572.447 39.8123 571.729 39.5244C571.011 39.1887 570.101 38.9489 569 38.8051V36H603.618V38.8051C603.044 38.8051 602.302 38.949 601.392 39.2368C600.482 39.4765 599.764 39.9322 599.237 40.6037C597.753 42.5696 597.011 45.2069 597.011 48.5156V55.3487H618.486V48.7316C618.486 46.1422 618.342 44.3442 618.055 43.3372C617.815 42.3301 617.384 41.3949 616.762 40.5318C616.331 39.9564 615.517 39.501 614.32 39.1652C613.889 39.069 613.243 38.9492 612.381 38.8058V36.0005H646.999L647 38.8055Z" fill="#EC1C23"/>
<path d="M569 44.3423L566.198 45.1838C565.139 41.4448 563.302 38.0175 560.686 34.9016C557.759 31.4118 554.582 28.8566 551.157 27.2363C547.794 25.5538 543.87 24.7127 539.386 24.7127L539.48 88.4635C539.48 89.2113 539.48 89.8345 539.48 90.3332C539.48 92.5143 539.636 94.4773 539.947 96.2221C540.321 97.9669 541.037 99.525 542.096 100.896C543.217 102.267 544.431 103.202 545.739 103.7C547.047 104.136 548.698 104.355 550.69 104.355V108H499.496V104.355C499.807 104.417 500.243 104.448 500.804 104.448C503.233 104.448 505.537 103.42 507.717 101.364C509.025 100.117 509.803 98.8398 510.052 97.5313C510.303 96.2226 510.428 94.2283 510.428 91.5487V24.713C506.691 24.713 503.483 25.2428 500.805 26.3021C498.127 27.2991 495.231 29.0441 492.117 31.5368C490.56 32.8456 489.003 34.7461 487.446 37.2387C485.578 40.23 484.363 42.7852 483.803 44.904L481 44.3429L487.726 12C488.536 12.7478 489.564 13.4022 490.809 13.9631C491.308 14.1508 491.993 14.2758 492.865 14.3383C493.799 14.4009 494.328 14.4323 494.453 14.4323C496.072 14.3697 496.975 14.3383 497.162 14.3383H553.214C554.148 14.3383 554.989 14.3383 555.736 14.3383C556.483 14.2758 557.511 14.089 558.819 13.7775C560.189 13.4038 561.497 12.874 562.743 12.1885L569 44.3423Z" fill="#EC1C23"/>
</g>
<defs>
<clipPath id="clip0_5_26">
<rect width="457" height="96" fill="white" transform="translate(12 12)"/>
</clipPath>
<clipPath id="clip1_5_26">
<rect width="415" height="96" fill="white" transform="translate(481 12)"/>
</clipPath>
</defs>
</svg>
